<svg xmlns="http://www.w3.org/2000/svg" width="2006" height="1209" viewBox="0 0 2006 1209" version="1.1"><path d="M 571.500 113.683 C 557.560 114.622, 528.093 118.392, 513.864 121.056 C 413.253 139.893, 320.581 190.104, 249.379 264.359 C 242.448 271.586, 235.440 279.188, 233.805 281.250 C 230.832 285, 230.832 285, 504.666 285.030 C 766.100 285.059, 831.824 285.608, 862 288.013 C 935.285 293.857, 992.511 307.824, 1037.497 330.848 C 1073.543 349.296, 1102.370 375.040, 1121.684 406.031 C 1136.431 429.693, 1147.140 461.546, 1151.069 493.435 C 1152.293 503.370, 1152.293 503.370, 1154.397 500.816 C 1155.554 499.412, 1202.566 450.279, 1258.869 391.631 L 1361.238 285 1568.218 285 C 1775.198 285, 1775.198 285, 1769.857 278.750 C 1761.199 268.618, 1734.408 242.224, 1722 231.602 C 1661.771 180.042, 1588.762 142.903, 1513.500 125.540 C 1495.355 121.354, 1479.927 118.633, 1458 115.753 C 1441.500 113.586, 1441.500 113.586, 1009 113.466 C 771.125 113.400, 574.250 113.498, 571.500 113.683 M 1668.537 439.963 C 1540.694 567.809, 1540.694 567.809, 1542.597 570.326 C 1547.918 577.363, 1805.504 883, 1806.114 883 C 1807.235 883, 1822.867 858.002, 1831.961 841.666 C 1863.775 784.512, 1882.987 723.453, 1890.694 655 C 1893.439 630.620, 1893.147 573.722, 1890.151 549.075 C 1881.799 480.373, 1862.428 420.850, 1829.270 362 C 1823.022 350.911, 1798.767 313.592, 1797.164 312.601 C 1796.733 312.335, 1738.851 369.648, 1668.537 439.963 M 428.481 591.750 C 409.346 644.413, 393.480 688.077, 393.225 688.783 C 392.848 689.824, 422.316 690, 549.630 689.717 C 691.975 689.402, 707.287 689.213, 715 687.680 C 764.039 677.935, 787.685 653.406, 805.010 594.309 C 815.331 559.104, 812.267 537.100, 794.583 519.418 C 786.391 511.228, 778.176 506.343, 765.500 502.124 C 746.870 495.924, 748.935 496, 599.258 496 C 463.273 496, 463.273 496, 428.481 591.750 M 1141.604 633.083 C 1141.349 633.862, 1139.717 640.326, 1137.977 647.446 C 1117.073 732.960, 1073.487 798.383, 1008.798 841.345 C 954.606 877.336, 882.739 899.139, 792.500 906.966 C 761.391 909.664, 729.444 909.973, 480.200 909.986 C 251.905 909.998, 220.001 910.180, 220.720 911.465 C 223.040 915.610, 243.303 938.271, 256.503 951.483 C 331.105 1026.152, 426.428 1074.584, 530 1090.445 C 564.460 1095.721, 532.674 1095.355, 990.500 1095.752 C 1294.774 1096.017, 1418.552 1095.806, 1431.500 1095.001 C 1523.329 1089.296, 1608.828 1059.365, 1684 1006.607 C 1717.461 983.123, 1752.615 950.814, 1778.232 920 C 1786.130 910.500, 1786.130 910.500, 1574.107 910 L 1362.084 909.500 1252.932 771.500 C 1192.899 695.600, 1143.395 633.087, 1142.923 632.583 C 1142.414 632.039, 1141.878 632.242, 1141.604 633.083" stroke="none" fill="#e41c2c" fill-rule="evenodd"/><path d="M 571.500 0.688 C 411.641 9.391, 261.508 81.623, 154.117 201.500 C 74.449 290.430, 23.140 399.947, 6.070 517.500 C -0.908 565.557, -1.866 624.444, 3.565 671.500 C 18.634 802.063, 72.987 920.100, 162.250 1016.114 C 269.364 1131.328, 415.504 1199.506, 573.500 1207.972 C 599.331 1209.356, 1405.311 1209.369, 1431.500 1207.986 C 1515.818 1203.533, 1593.019 1183.582, 1667.500 1146.996 C 1801.560 1081.144, 1907.915 966.257, 1963.267 827.500 C 1987.364 767.094, 2002.446 698.101, 2004.801 637.500 C 2005.334 623.763, 2005.637 621.039, 2006.077 626 C 2006.395 629.575, 2006.653 619.450, 2006.651 603.500 C 2006.649 587.550, 2006.356 577.650, 2006 581.500 C 2005.377 588.247, 2005.347 588.114, 2005.177 577.804 C 2004.803 555.199, 2000.436 517.476, 1994.896 489 C 1980.049 412.692, 1949.355 337.573, 1906.307 272.196 C 1871.276 218.995, 1826.116 169.861, 1775.500 129.878 C 1691.666 63.656, 1591.729 20.701, 1487.307 6.007 C 1445.685 0.150, 1482.977 0.583, 1010 0.467 C 772.125 0.409, 574.800 0.508, 571.500 0.688 M 571.500 113.683 C 557.560 114.622, 528.093 118.392, 513.864 121.056 C 413.253 139.893, 320.581 190.104, 249.379 264.359 C 242.448 271.586, 235.440 279.188, 233.805 281.250 C 230.832 285, 230.832 285, 504.666 285.030 C 766.100 285.059, 831.824 285.608, 862 288.013 C 935.285 293.857, 992.511 307.824, 1037.497 330.848 C 1073.543 349.296, 1102.370 375.040, 1121.684 406.031 C 1136.431 429.693, 1147.140 461.546, 1151.069 493.435 C 1152.293 503.370, 1152.293 503.370, 1154.397 500.816 C 1155.554 499.412, 1202.566 450.279, 1258.869 391.631 L 1361.238 285 1568.218 285 C 1775.198 285, 1775.198 285, 1769.857 278.750 C 1761.199 268.618, 1734.408 242.224, 1722 231.602 C 1661.771 180.042, 1588.762 142.903, 1513.500 125.540 C 1495.355 121.354, 1479.927 118.633, 1458 115.753 C 1441.500 113.586, 1441.500 113.586, 1009 113.466 C 771.125 113.400, 574.250 113.498, 571.500 113.683 M 1668.537 439.963 C 1540.694 567.809, 1540.694 567.809, 1542.597 570.326 C 1547.918 577.363, 1805.504 883, 1806.114 883 C 1807.235 883, 1822.867 858.002, 1831.961 841.666 C 1863.775 784.512, 1882.987 723.453, 1890.694 655 C 1893.439 630.620, 1893.147 573.722, 1890.151 549.075 C 1881.799 480.373, 1862.428 420.850, 1829.270 362 C 1823.022 350.911, 1798.767 313.592, 1797.164 312.601 C 1796.733 312.335, 1738.851 369.648, 1668.537 439.963 M 428.481 591.750 C 409.346 644.413, 393.480 688.077, 393.225 688.783 C 392.848 689.824, 422.316 690, 549.630 689.717 C 691.975 689.402, 707.287 689.213, 715 687.680 C 764.039 677.935, 787.685 653.406, 805.010 594.309 C 815.331 559.104, 812.267 537.100, 794.583 519.418 C 786.391 511.228, 778.176 506.343, 765.500 502.124 C 746.870 495.924, 748.935 496, 599.258 496 C 463.273 496, 463.273 496, 428.481 591.750 M 0.441 604.500 C 0.442 620.450, 0.580 626.835, 0.748 618.689 C 0.916 610.543, 0.916 597.493, 0.747 589.689 C 0.579 581.885, 0.441 588.550, 0.441 604.500 M 1141.604 633.083 C 1141.349 633.862, 1139.717 640.326, 1137.977 647.446 C 1117.073 732.960, 1073.487 798.383, 1008.798 841.345 C 954.606 877.336, 882.739 899.139, 792.500 906.966 C 761.391 909.664, 729.444 909.973, 480.200 909.986 C 251.905 909.998, 220.001 910.180, 220.720 911.465 C 223.040 915.610, 243.303 938.271, 256.503 951.483 C 331.105 1026.152, 426.428 1074.584, 530 1090.445 C 564.460 1095.721, 532.674 1095.355, 990.500 1095.752 C 1294.774 1096.017, 1418.552 1095.806, 1431.500 1095.001 C 1523.329 1089.296, 1608.828 1059.365, 1684 1006.607 C 1717.461 983.123, 1752.615 950.814, 1778.232 920 C 1786.130 910.500, 1786.130 910.500, 1574.107 910 L 1362.084 909.500 1252.932 771.500 C 1192.899 695.600, 1143.395 633.087, 1142.923 632.583 C 1142.414 632.039, 1141.878 632.242, 1141.604 633.083" stroke="none" fill="#fbfbfb" fill-rule="evenodd"/></svg>