<svg xmlns="http://www.w3.org/2000/svg" width="83.199" height="56.557" viewBox="0 0 83.199 56.557">
  <g id="Group_37" data-name="Group 37" transform="translate(0.3 0.3)">
    <path id="Path_4" data-name="Path 4" d="M99.947,118.457c10.678,0,21.358.113,32.033-.049a9.214,9.214,0,0,1,9.209,9.176c-.144,12.687-.04,25.377-.049,38.065a8.713,8.713,0,0,1-8.743,8.715q-32.45.008-64.9,0a8.669,8.669,0,0,1-8.893-8.866q-.027-19.033,0-38.066a8.626,8.626,0,0,1,9-8.968q16.173-.03,32.346-.006Zm-.008,24.281q-18.719,0-37.439-.015c-.9,0-1.284.164-1.278,1.189.044,7.037.01,14.074.029,21.111.011,4.1,2.635,6.694,6.729,6.695q31.927.005,63.854,0a6.265,6.265,0,0,0,6.658-6.658q.015-10.452,0-20.9c0-1.413-.009-1.415-1.427-1.415Zm-.067-2.645q18.67,0,37.341.019c.983,0,1.324-.261,1.3-1.279q-.09-4.523,0-9.048c.02-.992-.324-1.215-1.256-1.211-7.281.033-14.562.018-21.843.018q-26.42,0-52.839-.022c-1.036,0-1.384.262-1.359,1.333.069,3.015.057,6.033,0,9.048-.017.94.31,1.16,1.2,1.158Q81.15,140.071,99.872,140.093Zm0-14.146H137c1.362,0,1.466-.159.81-1.388a6.271,6.271,0,0,0-5.96-3.45q-17.21-.009-34.419-.007-14.714,0-29.428,0a6.349,6.349,0,0,0-6.059,3.469c-.661,1.238-.566,1.378.811,1.378Z" transform="translate(-58.591 -118.406)" stroke="#000" stroke-width="0.6"/>
    <path id="Path_5" data-name="Path 5" d="M340.416,297.074c-1.756-.771-3.76-.383-5.844-.151-3.376.376-6.127-2.306-6.6-5.949-.378-2.88,2-6.059,5.007-6.774a5.717,5.717,0,0,1,3.554.3,2.317,2.317,0,0,0,1.781,0,6.467,6.467,0,1,1,3.726,12.349C341.6,296.954,341.149,296.976,340.416,297.074Zm-2.505-6.544a3.684,3.684,0,0,0-3.644-3.734,3.706,3.706,0,1,0-.013,7.412A3.588,3.588,0,0,0,337.911,290.531Zm6.437.016a3.694,3.694,0,0,0-3.731-3.752c-.593.013-.952.06-.582.818a6.311,6.311,0,0,1-.015,5.886c-.309.609-.053.7.48.735A3.58,3.58,0,0,0,344.348,290.547Z" transform="translate(-271.89 -249.582)" stroke="#000" stroke-width="0.6"/>
    <path id="Path_6" data-name="Path 6" d="M106.017,313.276q-4.783,0-9.567,0c-1.165,0-1.726-.443-1.727-1.318s.56-1.318,1.729-1.319q9.567-.009,19.133-.007c.653,0,1.261.066,1.6.728.487.962-.177,1.906-1.391,1.913-3.085.019-6.17.006-9.255.006Z" transform="translate(-87.206 -270.636)" stroke="#000" stroke-width="0.6"/>
  </g>
</svg>
